<?xml version="1.0" encoding="UTF-8"?>
<svg width="39.712mm" height="33.865mm" version="1.1" viewBox="0 0 39.712 33.865" xmlns="http://www.w3.org/2000/svg">
 <g transform="translate(-51.959 -147.78)">
  <g transform="translate(-34.018 15.875)">
   <g transform="matrix(.35278 0 0 -.35278 98.855 155.65)">
    <path d="m0 0v-11.716c0-1.46 0-2.917 0.033-4.377 0.025-1.028 0.448-1.949 1.474-2.199 3.024-0.729 5.064-0.179 5.032 3.299-0.097 10.041-0.031 20.071-0.044 30.126 0.029 0.639-0.056 1.279-0.251 1.888-0.202 0.509-0.568 0.935-1.039 1.213-2.705 1.433-5.197-0.041-5.202-3.041v-15.19m17.61 0.071c0-5.969 0.017-11.935-0.016-17.904-0.024-0.9-0.146-1.796-0.366-2.67-1.061-4.578-3.654-7.113-8.551-7.61-3.539-0.373-7.107-0.382-10.648-0.026-5.653 0.597-8.433 3.685-9.043 9.329-0.124 1.153-0.186 2.311-0.187 3.47 0 10.22-0.039 20.44 0.022 30.659 0.013 1.93 0.216 3.853 0.605 5.741 0.769 3.743 3.208 5.998 6.873 6.841 4.331 0.991 8.823 1.042 13.176 0.152 5.246-1.053 7.935-4.301 8.083-9.953 0.157-6.008 0.036-12.021 0.036-18.032" fill="#fff"/>
   </g>
   <g transform="matrix(.35278 0 0 -.35278 113.27 165.68)">
    <path d="m0 0h-14.847l-7.935 57.188h12.213l3.215-40.073h0.274l3.913 40.076h12.023l-8.842-57.188" fill="#fff"/>
   </g>
   <g transform="matrix(.35278 0 0 -.35278 125.5 153.35)">
    <path d="m0 0v-10.509h-11.672v-14.324h12.222v-10.371h-23.915v57.279h23.901v-10.324h-12.202v-11.751z" fill="#fff"/>
   </g>
   <path d="m90.061 145.56v16.539h4.3229v3.6555h-8.4067v-20.194z" fill="#fff"/>
   <g transform="matrix(.35278 0 0 -.35278 102.49 138)">
    <path d="m0 0c0-3.132-0.016-6.264 0-9.398 0-1.509 0.58-2.059 1.996-2.054 1.416 6e-3 1.952 0.55 1.958 2.093 0.015 6.178 0.015 12.356 0 18.534 0 1.542-0.55 2.048-1.996 2.04-1.446-9e-3 -1.95-0.52-1.958-2.081-0.019-3.047 0-6.093 0-9.14m10.75-0.162v-9.147c0-0.644 0-1.29-0.06-1.925-0.258-3.514-1.809-5.521-5.271-5.952-2.509-0.281-5.045-0.23-7.542 0.151-2.686 0.382-4.157 2.224-4.476 4.948-0.151 1.408-0.222 2.824-0.214 4.24-0.022 5.499-0.022 10.999 0 16.497-1e-3 0.901 0.048 1.801 0.148 2.697 0.424 3.66 2.244 5.499 5.901 5.774 1.797 0.138 3.602 0.138 5.4 0 3.874-0.294 5.892-2.436 6.068-6.324 0.082-1.842 0.044-3.692 0.052-5.54v-5.411" fill="#fff"/>
   </g>
   <g transform="matrix(.35278 0 0 -.35278 110.9 138.04)">
    <path d="m0 0v9.266c0 1.509-0.55 2.041-2.01 2.032-1.399 0-1.925-0.506-1.925-1.966-0.016-6.221-0.016-12.441 0-18.66 0-1.524 0.57-2.06 1.997-2.038 1.426 0.022 1.938 0.55 1.946 2.103 0.013 3.088 0 6.178 0 9.266m6.753-0.024v-9.019c0-0.644 0-1.289-0.05-1.925-0.247-3.975-2.268-6.109-6.232-6.302-2.139-0.125-4.284-0.037-6.404 0.262-2.78 0.426-4.262 2.152-4.675 4.949-0.14 0.977-0.213 1.963-0.216 2.951-0.019 6.048-0.019 12.103 0 18.165 6e-3 0.859 0.063 1.716 0.17 2.568 0.412 3.192 1.87 4.976 5.086 5.408 2.338 0.314 4.707 0.32 7.047 0.022 3.407-0.443 5.115-2.551 5.224-6.128 0.107-3.646 0.025-7.3 0.025-10.949h0.044" fill="#fff"/>
   </g>
   <g transform="matrix(.35278 0 0 -.35278 99.114 132.18)">
    <path d="m0 0v-33.257h-6.681v14.244h-4.012v-14.28h-6.739v33.315h6.673v-12.735h3.992v12.713z" fill="#fff"/>
   </g>
   <g transform="matrix(.35278 0 0 -.35278 116.18 140.27)">
    <path d="m0 0c0.055-1.127 0.077-2.152 0.162-3.175 0.096-1.136 0.682-1.846 1.886-1.859 1.204-0.014 1.765 0.715 1.925 1.826 0.337 1.947-0.37 3.93-1.865 5.224-1.393 1.27-2.909 2.403-4.374 3.593-4.319 3.503-5.161 8.092-4.058 13.237 0.506 2.358 2.073 3.815 4.399 4.398 2.428 0.601 4.962 0.634 7.404 0.097 2.854-0.606 4.526-2.395 4.95-5.238 0.236-1.636 0.195-3.299 0.274-5.048h-6.549c-0.066 0.94-0.096 1.87-0.209 2.791-0.14 1.13-0.767 1.806-1.968 1.778-1.202-0.027-1.694-0.764-1.848-1.894-0.259-1.877 0.388-3.393 1.773-4.588 1.169-1.01 2.401-1.951 3.638-2.871 4.91-3.657 6.305-8.465 4.674-15.169-0.426-2.021-2.11-3.534-4.165-3.74-2.447-0.291-4.98-0.433-7.424-0.132-3.286 0.408-4.734 2.016-5.178 5.307-0.236 1.76-0.041 3.574-0.041 5.463z" fill="#fff"/>
   </g>
   <g transform="matrix(.35278 0 0 -.35278 92.056 136.33)">
    <path d="m0 0h-6.582v4.353c0 1.44-0.531 2.032-1.708 2.094-1.176 0.064-1.847-0.506-1.858-1.924-0.046-6.232-0.051-12.464-0.017-18.696 0-1.463 0.616-2.055 1.774-2.043 1.224 0 1.801 0.676 1.812 2.125v5.483h6.816c-0.195-3.19 0.407-6.404-0.583-9.549-0.624-1.977-2.079-3.137-4.023-3.638-2.633-0.683-5.398-0.683-8.031 0-2.513 0.641-3.948 2.326-4.371 4.858-0.144 0.847-0.218 1.705-0.223 2.563-0.02 6.271 0 12.546 0 18.817 0 0.344 0 0.688 0.016 1.032 0.193 4.399 2.282 6.656 6.684 6.915 1.881 0.114 3.77 0.012 5.628-0.303 2.711-0.473 4.367-2.287 4.63-5.004 0.223-2.288 0.047-4.611 0.047-7.077" fill="#fff"/>
   </g>
   <g transform="matrix(.35278 0 0 -.35278 123.09 141.8)">
    <path d="m0 0h7.021v-6.013h-13.827v33.31h13.855v-5.944h-7.017v-6.902h6.685v-6.067h-6.717z" fill="#fff"/>
   </g>
  </g>
 </g>
</svg>
