<?xml version="1.0" encoding="UTF-8"?>
<svg width="63.252mm" height="29.034mm" version="1.1" viewBox="0 0 63.252 29.034" xmlns="http://www.w3.org/2000/svg">
 <g transform="translate(-85.546 -214.45)">
  <g transform="matrix(.35278 0 0 -.35278 148.03 219.76)">
   <path d="m0 0-25.498-7.604c4.048-13.569-3.699-27.901-17.269-31.948-13.568-4.047-27.9 3.699-31.947 17.269-8.24 27.628-37.422 43.402-65.05 35.161-27.628-8.24-43.401-37.421-35.161-65.049l25.497 7.604c-4.047 13.569 3.7 27.9 17.269 31.948 13.569 4.047 27.9-3.7 31.947-17.269 8.24-27.629 37.422-43.402 65.051-35.162 27.628 8.24 43.401 37.422 35.161 65.05" fill="#44d1b5"/>
  </g>
 </g>
</svg>
